/* XPM */
static char * chest_xpm[] = {
"224 32 12 1",
" 	c None",
".	c #33323D",
"+	c #94A2BD",
"@	c #7B7BAB",
"#	c #68538A",
"$	c #504377",
"%	c #8A4452",
"&	c #A05858",
"*	c #B77F6B",
"=	c #CB9050",
"-	c #EED878",
";	c #FFFFFF",
"                                                                                                                                              ...                                                                               ",
"                                                                                                                                   ............++............                                                                   ",
"                                                                                                                                  .@@@@@+@++@#.@@.@+@+++@@@@@.                                                                  ",
"                                                                                                                                  .@@@@..................@@@@.                                                                  ",
"                                                                                                                                  .$$..%%%%%%%%%%%%%%%%%%..$$.                                                ...               ",
"                                                                                                                                  .###.%%%%%%%%%%%%%%%%%%.###.                                    .............++.............  ",
"                                                                                                                                  .###.%%&&&&&&&&&&&&&&%%.###.                ...                .@@@@@+@++@@#.@@.@@+@+++@@@@@. ",
"                                                                                                                                  .###.%&&&&&&%&%%%%&&&&%.###.   ..............++..............  .@@@@....................@@@@. ",
"  ............................    ............................    ............................                                    .###...%%&%&&&&&&&&&&&%.###.  .@@@@@+@++@@@#.@@.@@@+@+++@@@@@. .$$..%%%%%%%%%%%%%%%%%%%%..$$. ",
" .+++.*******************&.+++.  .+++.*******************&.+++.  .+++.*******************&.+++.                                   .###.%&&&&&&&&&&%%%&%&%.###.  .@@@@......................@@@@. .###.%%%%%%%%%%%%%%%%%%%%.###. ",
" .@@@.%%&&&*&***&%&&***&&..@@@.  .@@@.%%&&&*&***&%&&***&&..@@@.  .@@@.%%&&&*&***&%&&***&&..@@@.  ..............................   .###.%&&&&&&&&&&&&&&&&%.###.  .$$..%%%%%%%%%%%%%%%%%%%%%%..$$. .###.%%&&&&&&&&&&&&&&&&%%.###. ",
" .@@@.*******************&.@@@.  .@@@.*******************&.@@@.  .@@@.*******************&.@@@. .+++.*********************&.+++.  .###.%&&&&&&&&&&&&&&&&%.###.  .###.%%%%%%%%%%%%%%%%%%%%%%.###. .###.%&&&&&&%&%%%%&&&&&&%.###. ",
" .@@@.*******************&.@@@.  .@@@.*******************&.@@@.  .@@@.*******************&.@@@. .@@@.%%&&&*&****&%&&****&&..@@@.  .###.%&&&%%%&%&&&&&&&&%.###.  .###.%%&&&&&&&&&&&&&&&&&&%%.###. .###...%%&%&&&&&&&&&&&&&%.###. ",
" .@@@.%&&***&%&***&*&&&%%..@@@.  .@@@.%&&***&%&***&*&&&%%..@@@.  .@@@.%&&***&%&***&*&&&%%..@@@. .@@@.*********************&.@@@.  .###..%&&&&&&&&&&&&&&&%.###.  .###.%&&&&&&&%&%%%%&&&&&&&%.###. .###.%&&&&&&&&&&&&%%%&%&%.###. ",
" .@@@.*******************&.@@@.  .@@@.*******************&.@@@.  .@@@.*******************&.@@@. .@@@.%&&****&%&****&*&&&%%..@@@.  .$$$.%&&&&&&&&&%&%%&%%..$$$.  .###...%%&%&&&&&&&&&&&&&&&%.###. .###.%&&&&&&&&&&&&&&&&&&%.###. ",
" .@@@......................@@@.  .@@@......................@@@.  .@@@......................@@@. .@@@.*********************&.@@@.  ..$$.%&&&&&&&&&&&&&&&&%.$$..  .###.%&&&&&&&&&&&&&&%%%&%&%.###. .###.%&&&%%%&%&&&&&&&&&&%.###. ",
" .@@@@+@++@@@#.++.@@@+@+++@@@@.  .@@@@+@++@@@#.++.@@@+@+++@@@@.  .@@@@+@++@@@#.++.@@@+@+++@@@@. .@@@........................@@@.   ..........................   .###.%&&&%%%&%&&&&&&&&&&&&%.###. .###..%&&&&&&&&&&&&&&&&&%.###. ",
" .#@@@+@++@@@#.@@.@@@+@+++@@@#.  .#@@@+@++@@@#.@@.......++@@@#.  .#@@@+@++@@@#.@@.@@@+@+++@@@#. .@@@@+@+++@@@#.++.@@@@+@+++@@@@.  .@@@@@@@@@@@@@@@++@+@@@@@@@.  .###..%&&&&&&&&&&&&&&&&&&&%.###. .$$$.%&&&&&&&&&&&%&%%&%%..$$$. ",
" ..###@#@@###..@@..##@#@@@###..  ..###@#@@####.@@.=-;-;;.@###..  ..###@#@@####.@@.###@#@@@###.. .#@@@+@+++@@@#.@@.@@@@+@+++@@@#.  .@@@@@@@@@@@@@@@++@+@@@@@@@.  .$$$.%&&&&&&&&&&&&&%&%%&%%..$$$. ..$$.%&&&&&&&&&&&&&&&&&&%.$$.. ",
" ............=.##.;............  ..............##.-....-.......  ..............##.............. ..###@#@@@####.@@.####@#@@@###..  .@@#....................#@@.  ..$$.%&&&&&&&&&&&&&&&&&&&&%.$$..  ............................  ",
" .##########.=....-.##########.  .############....-.##.-.#####.  .############...#############. ...............##...............  .@@.&&&&&&&&&&&&&&&&&&&&.@@.   ..............................  .@@@@@@@@@@@@@@@@@++@+@@@@@@@. ",
" .@@@@@@@@@@.=.##.=.@@@@@@@@@@.  .@@@@@@@@@@@@###.=.@@..@@@@@@.  .@@@@@@@@@@@@###@@@@@@@@@@@@@. .#############...##############.  .@@.*******************&.@@.  .@@@@@@@@@@@@@@@@@@+++@+@@@@@@@. .@@@@@@@@@@@@@@@@@++@+@@@@@@@. ",
" .@@#......................#@@.  .@@#......................#@@.  .@@#......................#@@. .@@@@@@@@@@@@@###@@@@@@@@@@@@@@.  .@@.***&&%%&***&*&%&***&.@@.  .@@@@@@@@@@@@@@@@@@+++@+@@@@@@@. .@@#......................#@@. ",
" .@@.&&&&&&.-;;;;;;;.&&&&&&.@@.  .@@.&&&&&&.-;;;;;;;.&&&&&&.@@.  .@@.&&&&&&&&&&&&&&&&&&&&&&.@@. .@@#........................#@@.  .@@.*******************&.@@.  .@@#........................#@@. .@@.&&&&&&&&&&&&&&&&&&&&&&.@@. ",
" .@@.*****&.=------;.*****&.@@.  .@@.******.=------;.*****&.@@.  .@@.*********************&.@@. .@@.&&&&&&&&&&&&&&&&&&&&&&&&.@@.  .@@.%&******&%&******&%..@@.  .@@.&&&&&&&&&&&&&&&&&&&&&&&&.@@. .@@.*********************&.@@. ",
" .@@.***&&%.=-....-;.%&***&.@@.  .@@.***&&%.=-....-;.%&***&.@@.  .@@.***&&%%&*****&*&%&***&.@@. .@@.***********************&.@@.  .@@.*******************&.@@.  .@@.***********************&.@@. .@@.***&&%%&*****&*&%&***&.@@. ",
" .@@.%&***&.=-=..=-;.***&%..@@.  .@@.%&****.=-=..=-;.***&%..@@.  .@@.%&*******&%&*******&%..@@. .@@.%&**&&%%&*&%&**&*&%&*&%..@@.  .@@#....................#@@.  .@@.%&*&&%%&**&%&**&*&%&*&%..@@. .@@.%&*******&%&*******&%..@@. ",
" .@@.*****&.=------;.*****&.@@.  .@@.******.=------;.*****&.@@.  .@@.*********************&.@@. .@@.***********************&.@@.  .##########################.  .@@.***********************&.@@. .@@.*********************&.@@. ",
" .@@#.......=======-.......#@@.  .@@#.......=======-.......#@@.  .@@#......................#@@. .@@#........................#@@.  .##########################.  .@@#........................#@@. .@@#......................#@@. ",
" .##########........##########.  .##########........##########.  .############################. .##############################.   ..........................   .##############################. .############################. ",
" .############################.  .############################.  .############################. .##############################.                                .##############################. .############################. ",
"  ............................    ............................    ............................   ..............................                                  ..............................   ............................  "};
