/* XPM */
static char * chest_close_xpm[] = {
"32 32 8 1",
" 	c None",
".	c #33323D",
"+	c #94A2BD",
"@	c #B77F6B",
"#	c #A05858",
"$	c #7B7BAB",
"%	c #8A4452",
"&	c #68538A",
"                                ",
"                                ",
"                                ",
"                                ",
"                                ",
"                                ",
"                                ",
"                                ",
"  ............................  ",
" .+++.@@@@@@@@@@@@@@@@@@@#.+++. ",
" .$$$.%%###@#@@@#%##@@@##..$$$. ",
" .$$$.@@@@@@@@@@@@@@@@@@@#.$$$. ",
" .$$$.@@@@@@@@@@@@@@@@@@@#.$$$. ",
" .$$$.%##@@@#%#@@@#@###%%..$$$. ",
" .$$$.@@@@@@@@@@@@@@@@@@@#.$$$. ",
" .$$$......................$$$. ",
" .$$$$+$++$$$&.++.$$$+$+++$$$$. ",
" .&$$$+$++$$$&.$$.$$$+$+++$$$&. ",
" ..&&&$&$$&&&&.$$.&&&$&$$$&&&.. ",
" ..............&&.............. ",
" .&&&&&&&&&&&&...&&&&&&&&&&&&&. ",
" .$$$$$$$$$$$$&&&$$$$$$$$$$$$$. ",
" .$$&......................&$$. ",
" .$$.######################.$$. ",
" .$$.@@@@@@@@@@@@@@@@@@@@@#.$$. ",
" .$$.@@@##%%#@@@@@#@#%#@@@#.$$. ",
" .$$.%#@@@@@@@#%#@@@@@@@#%..$$. ",
" .$$.@@@@@@@@@@@@@@@@@@@@@#.$$. ",
" .$$&......................&$$. ",
" .&&&&&&&&&&&&&&&&&&&&&&&&&&&&. ",
" .&&&&&&&&&&&&&&&&&&&&&&&&&&&&. ",
"  ............................  "};
