/* XPM */
static char * key_xpm[] = {
"32 32 5 1",
" 	c None",
".	c #33323D",
"+	c #EED878",
"@	c #FFFFFF",
"#	c #CB9050",
"                                ",
"                                ",
"                                ",
"                                ",
"                                ",
"                                ",
"                                ",
"                                ",
"                                ",
"              ....              ",
"             .+++@.             ",
"            .++..+@.            ",
"            .+.  .@.            ",
"            .+.  .+.            ",
"            .++..++.            ",
"             .#++#.             ",
"              ..#.              ",
"              .#+.              ",
"              .#+.              ",
"            ...#+.              ",
"            .+##+.              ",
"             .##+.              ",
"            .+###.              ",
"            .....               ",
"                                ",
"                                ",
"                                ",
"                                ",
"                                ",
"                                ",
"                                ",
"                                "};
