/* XPM */
static char *_a602fe945484dbdae058229dafadf82JSXzmJ7IqAwHGRur[] = {
/* columns rows colors chars-per-pixel */
"192 32 25 1 ",
"  c None",
". c #472D3C",
"X c #5E3643",
"o c #5A5353",
"O c #7A444A",
"+ c #7D7071",
"@ c #F47E1B",
"# c #E6482E",
"$ c #95534B",
"% c #A05B53",
"& c #AD665E",
"* c #B16F50",
"= c #BF7958",
"- c #877577",
"; c #71AA34",
": c #DEA61F",
"> c #F4B41B",
", c #C29425",
"< c #ADCC34",
"1 c #B6D53C",
"2 c #91817B",
"3 c #C9805E",
"4 c #A0938E",
"5 c #B7AAA5",
"6 c #CFC6B8",
/* pixels */
"                                                                               ..                                                                                              ..               ",
"               ..                             ..                               .1.                             ..                             ..                               .1.              ",
"               .1.                            .1.                               .1.                            .1.                            .1.                               .1.             ",
"                .1.                            .1.                           . .=<<. .                          .1.                            .1.                           . .=<<. .          ",
"             . .=<<. .                      . .=<<.   .                     .1..==;..1.                      . .=<<. .                      . .=<<.   .                     .1..==;..1.         ",
"            .1..==;..1.                    .1..==;.  .1.                   .==<.%=;.==;.                    .1..==;..1.                    .1..==;.  .1.                   .==<.%=;.==;.        ",
"           .==<.%=;.==;.                  .==<..%**..==;.                  .%=;.%**.%=;.                   .==<.%=;.==;.                  .==<..%**..==;.                  .%=;.%**.%=;.        ",
"           .%=;.%**.%=;.                  .%=*;.%%*.%%=;.                   .*;.%%*.%*.                    .%=;.%**.%=;.                  .%=*;.%%*.%%=;.                   .*;.%%*.%*.         ",
"            .*;.%%*.%*.                   ...*OOOOOOO*...                 ...*OOOOOOO**..                   .*;.%%*.%*.                   ...*OOOOOOO*...                 ...*OOOOOOO**..       ",
"          ...*OOOOOOO**..                 .$.**OOOOO***$.                 .$.**OOOOO***$.                 ...*OOOOOOO**..                 .$.**OOOOO***$.                 .$.**OOOOO***$.       ",
"          .$.**OOOOO***$.                 .$$$$%%%%%%$$$.                 .$$$$%%%%%%$$$.                 .$.**OOOOO***$.                 .$$$$%%%%%%$$$.                 .$$$$%%%%%%$$$.       ",
"          .$$$$%%%%%%$$$.                  .......$$$...                   .......$$$...                  .$$$$%%%%%%$$$.                  .......$$$...                   .......$$$...        ",
"           .......$$$...                   .555+++...++.                   .555+++...++.                   .......$$$...                   .555+++...++.                   .555+++...++.        ",
"           .555+++...++.                   .5.62.2+++2..                   .5.62.2+++2..                   .555+++...++.                   .5.62.2+++2..                   .5.62.2+++2..        ",
"           .5.62.2+++2..                   .4..4..2.2...                   .4..4..2.2...                   .5.62.2+++2..                   .4..4..2.2...                   .4..4..2.2...        ",
"           .4..4..2.2...                   .o++22444442.                   .o++22444442.                   .4..4..2.2...                   .o++22444442.                   .o++22444442.        ",
"           .o++22444442.                   .oo+++2...2.                    .oo+++2...2.                    .o++22444442.                   .oo+++2...2.                    .oo+++2...2.         ",
"           .oo+++2...2.                     .o+++22222.                     .o+++22222.                    .oo+++2...2.                     .o+++22222.                     .o+++22222.         ",
"            .o+++22222.                     ....++++++.                     ....++++++.                     .o+++22222.                     ....++++++.                     ....++++++.         ",
"            ....++++++.                     .33=.......                     .33=.......                     ....++++++.                     .33=.......                     .33=.......         ",
"            .33=.......                     ..==&&%%%%.                     ..==&&%%%%.                     .33=.......                     ..==&&%%%%.                     ..==&&%%%%.         ",
"            ..==&&%%%%.                    .65.&&%##%%.                    .65.&&%##%%..                    ..==&&%%%%.                    .65.&&%##%%.                    .65.&&%##%%..        ",
"           .65.&&%##%%..                  .6555.%#>@#%..                  .6555.%#>@#%..                   .65.&&%##%%..                  .6555.%#>@#%..                  .6555.%#>@#%..        ",
"          .6555.%#>@#%..                  .655+.%#@>#%..                  .65.+.%#@>#%.-.                 .6555.%#>@#%..                  .655+.%#@>#%..                  .65.+.%#@>#%.-.       ",
"          .65.+.%#@>#%.-.                 .65.+4.O##O..-.                 .54.+4.O##O..+...               .65.+.%#@>#%.-.                 .65.+4.O##O..-.                 .54.+4.O##O..+...     ",
"          .54.+4.O##O..+...               .54.+4.OOOO..+...       .........+4............>>..             .54.+4.O##O..+...               .54.+4.OOOO..+...       .........+4............>>..   ",
"  .........+4............>>..     .........+4............>>..     .=======.4+.=========.>:>>>.    .........+4............>>..     .........+4............>>..     .=======.4+.=========.>:>>>.  ",
"  .=======.4+.=========.>:>>>.    .=======.4+.=========.>:>>>.     ......................,:..     .=======.4+.=========.>:>>>.    .=======.4+.=========.>:>>>.     ......................,:..   ",
"   ......................,:..      ......................,:..               .OO.    .4+  ..        ......................,:..      ......................,:..                 .X.44      ..     ",
"             .OO...OO.   ..                .44.          ..                .44.                              .OO...OO.   ..                   .oo.44     ..                   .oo.              ",
"             .44. .44.                     .4+                             .4+                               .44. .44.                        .oo                             .oo               ",
"             .4+  .4+                                                                                        .4+  .4+                                                                           "
};
