/* XPM */
static char *_d863a5959d345e9eaa94a3a5e86e7d0dCyO3VWpYhEEIYdK[] = {
/* columns rows colors chars-per-pixel */
"96 32 24 1 ",
"  c None",
". c #472D3C",
"X c #5A5353",
"o c #7A444A",
"O c #7D7071",
"+ c #F47E1B",
"@ c #E6482E",
"# c #95534B",
"$ c #A05B53",
"% c #AD665E",
"& c #B16F50",
"* c #BF7958",
"= c #877577",
"- c #71AA34",
"; c #DEA61F",
": c #F4B41B",
"> c #C29425",
", c #ADCC34",
"< c #B6D53C",
"1 c #91817B",
"2 c #C9805E",
"3 c #A0938E",
"4 c #B7AAA5",
"5 c #CFC6B8",
/* pixels */
"                                                                                                ",
"               ..                                                                               ",
"               .<.                             ..                              ..               ",
"                .<.                            .<.                             .<.              ",
"             . .*,,. .                          .<.                             .<.             ",
"            .<..**-..<.                      . .*,,. .                       . .*,,. .          ",
"           .**,.$*-.**-.                    .<..**-..<.                     .<..**-..<.         ",
"           .$*-.$&&.$*-.                   .**,.$*-.**-.                   .**,.$*-.**-.        ",
"            .&-.$$&.$&.                    .$*-.$&&.$*-.                   .$*-.$&&.$*-.        ",
"          ...&ooooooo&&..                   .&-.$$&.$&.                     .&-.$$&.$&.         ",
"          .#.&&ooooo&&&#.                 ...&ooooooo&&..                 ...&ooooooo&&..       ",
"          .####$$$$$$###.                 .#.&&ooooo&&&#.                 .#.&&ooooo&&&#.       ",
"           .......###...                  .####$$$$$$###.                 .####$$$$$$###.       ",
"           .444OOO...OO.                   .......###...                   .......###...        ",
"           .4.51.1OOO1..                   .444OOO...OO.                   .444OOO...OO.        ",
"           .3..3..1.1...                   .4.51.1OOO1..                   .4.51.1OOO1..        ",
"           .XOO11333331.                   .3..3..1.1...                   .3..3..1.1...        ",
"           .XXOOO1...1.                    .XOO11333331.                   .XOO11333331.        ",
"            .XOOO11111.                    .XXOOO1...1.                    .XXOOO1...1.         ",
"            ....OOOOOO.                     .XOOO11111.                     .XOOO11111.         ",
"            .22*.......                     ....OOOOOO.                     ....OOOOOO.         ",
"            ..**%%$$$$.                     ..**.......                     .22*.......         ",
"           .54.%%$@@$$..                   .54.%%$@@$$..                    ..**%%$$$$.         ",
"          .5444.$@:+@$..                  .5444.$@:+@$..                   .54.%%$@@$$..        ",
"          .54.O.$@+:@$.=.                 .54.O.$@+:@$.=.                 .5444.$@:+@$..        ",
"          .43.O3.o@@o..O...               .43.O3.o@@o..O...               .54.O.$@+:@$.=.       ",
"  .........O3............::..     .........O3............::..             .43.O3.o@@o..O...     ",
"  .*******.3O.*********.:;:::.    .*******.3O.*********.:;:::.    .........O3............::..   ",
"   ......................>;..      ......................>;..     .*******.3O.*********.:;:::.  ",
"             .oo...oo.   ..                  .oo...oo.   ..        ......................>;..   ",
"             .33. .33.                       .33. .33.                       .33. .33.   ..     ",
"             .3O  .3O                        .3O  .3O                        .3O  .3O           "
};
