/* XPM */
static char * enemy_left_xpm[] = {
"32 32 12 1",
" 	c None",
".	c #33323D",
"+	c #7B7BAB",
"@	c #68538A",
"#	c #94A2BD",
"$	c #DE5050",
"%	c #F18770",
"&	c #FFFFFF",
"*	c #B43B6A",
"=	c #EED878",
"-	c #E39BBA",
";	c #B36AA0",
"                                ",
"                                ",
"                                ",
"                                ",
"                                ",
"                                ",
"                                ",
"                                ",
"                                ",
"           ...........          ",
"          .++++++++++@.         ",
"         .+##+++++++++@....     ",
"         .+##+++++++++@..@@.    ",
"        .+++++++++++++@@..@+.   ",
"        .+#+++++++++++@@..@+.   ",
"        .+++++++++++++@@.....   ",
"        ............++@@..      ",
"        .$$%%%$%$$$$.+@@.       ",
"       .$$.........$$.@@.       ",
"       .$.&.&.&.&.&.$.@@.       ",
"       .*.&.&.&.&.&.*.@@.       ",
"      ..**&.*****.&**.@.....    ",
"      .@.***.....***.@@++++.    ",
"      .@....@@@@@...@@+++++.    ",
"       ..++++++++@@@@@@.++.     ",
"        .+++.....@@@@@@@..      ",
"        ....&====........       ",
"        .---;;;;;;----;;.       ",
"        .--..........-;;.       ",
"        .;;;.       .;;..       ",
"         .@@.        .@@.       ",
"          ...         ...       "};
