/* XPM */
static char *result[] = {
/* columns rows colors chars-per-pixel */
"160 32 27 1 ",
"  c #1F3D39",
". c #472D3C",
"X c #754027",
"o c #7D5E3B",
"O c #3C5956",
"+ c #5A5353",
"@ c #7A444A",
"# c #7D7071",
"$ c #8A4F33",
"% c #A05B53",
"& c #97724A",
"* c #A46242",
"= c #AD6F52",
"- c #BF7958",
"; c #CF7E57",
": c #BE936E",
"> c #C79B6C",
", c #D49D6F",
"< c #CB9B72",
"1 c #EEA160",
"2 c #E5B581",
"3 c #E1B28A",
"4 c #E5C29D",
"5 c #F6C693",
"6 c #F4CCA1",
"7 c white",
"8 c None",
/* pixels */
"8888888888888888888888888888888888888888888888888888888888888888888888888888888888888888888888888888888888888888888888888888888888888888888888888888888888888888",
"8888888888888888888888888888888888888888888888888888888888888888888888888888888888888888888888888888888888888888888888888888888888888888888888888888888888888888",
"8888888888888888888888888888888888888888888888888888888888888888888888888888888888888888888888888888888888888888888888888888888888888888888888888888888888888888",
"8888888888888888888888888888888888888888888888888888888888888888888888888888888......88888888888888888888888888......88888888888888888888888888......88888888888",
"888888888888888......88888888888888888888888888......888888888888888888888888..333,;=.88888888888888888888888..333,;=.88888888888888888888888..333,;=.8888888888",
"8888888888888..333,;=.88888888888888888888888..333,;=.8888888888888888888888.333,,,-;=.888888888888888888888.333,,,-;=.888888888888888888888.333,,,-;=.888888888",
"888888888888.333,,,-;=.888888888888888888888.333,,,-;=.88888888888888888888.33,,----;=*.8888888888888888888.33,,----;=*.8888888888888888888.33,,----;=*.88888888",
"88888888888.33,,----;=*.8888888888888888888.33,,----;=*.888888888888888888.33,------=;*.888888888888888888.33,------=;*.888888888888888888.33,------=;*.88888888",
"8888888888.33,------=;*.888888888888888888.33,------=;*.88888888888888888.......-====..,.8888888888888888.......-====..,.8888888888888888.......-====..,.8888888",
"888888888.......-====..,.8888888888888888.......-====..,.888888888888888833333,,.....,,,,.88888888888888833333,,.....,,,,.88888888888888833333,,.....,,,,.888888",
"88888888.33333,,.....,,,,.88888888888888.33333,,.....,,,,.88888888888888........,,,,,,...888888888888888........,,,,,,...888888888888888........,,,,,,...8888888",
"888888888.......,,,,,,...8888888888888888.......,,,,,,...88888888888888888.oo&&4......4.888888888888888888.oo&&4......4.888888888888888888.oo&&4......4.88888888",
"8888888888.oo&&4......4.888888888888888888.oo&&4......4.888888888888888888.o&&44##444##.888888888888888888.o&&44##444##.888888888888888888.o&&44##444##.88888888",
"8888888888.o&&44##444##.888888888888888888.o&&44##444##.888888888888888888.&####7.###7.#.88888888888888888.&####7.###7.#.88888888888888888.&####7.###7.#.8888888",
"8888888888.&####7.###7.#.88888888888888888.&####7.###7.#.88888888888888888.#6>6+..+&+..+.88888888888888888.#6>6+..+&+..+.88888888888888888.#6>6+..+&+..+.8888888",
"8888888888.#6>6+..+&+..+.88888888888888888.#6>6+..+&+..+.88888888888888888.&>>66++>>>++.888888888888888888.&>>66++>>>++.888888888888888888.&>>66++>>>++.88888888",
"8888888888.&>>66++>>>++.888888888888888888.&>>66++>>>++.888888888888888888.&&>>6>>&&&>>.888888888888888888.&&>>6>>&&&>>.888888888888888888.&&>>6>>&&&>>.88888888",
"8888888888.&&>>6>>&&&>>.888888888888888888.&&>>6>>&&&>>.8888888888888888888.&&>>&>>>>>&.8888888888888888888.&&>>&>>>>>&.8888888888888888888.&&>>&>>>>>&.88888888",
"88888888888.&&>>&>>>>>&.8888888888888888888.&&>>&>>>>>&.8888888888888888888.....&&&&&&.88888888888888888888.....&&&&&&.88888888888888888888.....&&&&&&.888888888",
"88888888888.....&&&&&&.88888888888888888888.....&&&&&&.88888888888888888888.:333......888888888888888888888.:333......888888888888888888888.:333......8888888888",
"88888888888.<:33.......8888888888888888888..<:33.......8888888888888888888.<<:33X X X:.8888888888888888888.<<:33XO O:<.8888888888888888888.<<:33XO O:<.888888888",
"8888888888.33<:3XO O:<.888888888888888888.:33<:3XO O:<..88888888888888888.:33<:3XO O:<..88888888888888888.:33<:3$ X :3..88888888888888888.:33<:3$ X :3..88888888",
"888888888.:333<:$ X :3..8888888888888888..::.3<:$ X :3..8888888888888888..::.3<:$ X :3..8888888888888888..::.3<:*$$X$:..8888888888888888..::.3<:*$$X$:..88888888",
"88888888..::.33:*$$X$:..8888888888888888.5.:.33:*$$X$:.1.888888888888888.5.:.33:*$$X$:.1.888888888888888.5.:.33:***X*:.1.888888888888888.5.:.33:***X*:.1.8888888",
"88888888.5..33:****X*:.1.888888888888888.65.33:****X*:.1.888888888888888.65.33:****X*:.1.888888888888888.65.33:****X*:.1.888888888888888.65.33:****X*:.1.8888888",
"88888888.65.33:$***X*:.1.888888888888888.66.33:$***X*:.1.888888888888888.66.33:$***X*:.1.888888888888888.66.33:$***X*:.1.888888888888888.66.33:$***X*:.1.8888888",
"88888888.66.33:$$$X$$:.1.888888888888888.26.33:$$$X$$:.1.888888888888888.26.33:$$$X$$:.1.888888888888888.26.33:$$$X$$:.1.888888888888888.26.33:$$$X$$:.1.8888888",
"88888888.26.33:XXXXXX:.1.8888888888888888...33:XXXXXX:..88888888888888888...33:XXXXXX:..88888888888888888...33:XXXXXX:..88888888888888888...33:XXXXXX:..88888888",
"888888888...33:%%%%%:3..8888888888888888888.33:%%%%%:3.88888888888888888888.33:%%%%%:3.88888888888888888888.33:%%%%%:3.88888888888888888888.33:%%%%%:3.888888888",
"88888888888.::%....%%:.88888888888888888888.::%....%%:.88888888888888888888.::%....%%:.88888888888888888888.::%....%%:.88888888888888888888.::%....%%:.888888888",
"88888888888.@%%.88.@%%.88888888888888888888.@%%.88.@%%.88888888888888888888.@%%.88.@%%.88888888888888888888.@%%.88.@%%.88888888888888888888.@%%.88.@%%.888888888",
"88888888888.@@@888.@@@888888888888888888888.@@@888.@@@888888888888888888888.@@@888.@@@888888888888888888888.@@@888.@@@888888888888888888888.@@@888.@@@8888888888"
};
