/* XPM */
static char * player_left_xpm[] = {
"32 32 27 1",
" 	c None",
".	c #472D3C",
"+	c #AD6F52",
"@	c #CF7E57",
"#	c #D49D6F",
"$	c #E1B28A",
"%	c #BF7958",
"&	c #A46242",
"*	c #E5C29D",
"=	c #97724A",
"-	c #7D5E3B",
";	c #7D7071",
">	c #FFFFFF",
",	c #5A5353",
"'	c #F4CCA1",
")	c #C79B6C",
"!	c #BE936E",
"~	c #CB9B72",
"{	c #3C5956",
"]	c #1F3D39",
"^	c #754027",
"/	c #8A4F33",
"(	c #EEA160",
"_	c #F6C693",
":	c #E5B581",
"<	c #A05B53",
"[	c #7A444A",
"                                ",
"                                ",
"                                ",
"                                ",
"           ......               ",
"          .+@#$$$..             ",
"         .+@%###$$$.            ",
"        .&+@%%%%##$$.           ",
"        .&@+%%%%%%#$$.          ",
"       .#..++++%.......         ",
"      .####.....##$$$$$.        ",
"       ...######.......         ",
"        .*......*==--.          ",
"        .;;***;;**==-.          ",
"       .;.>;;;.>;;;;=.          ",
"       .,..,=,..,')';.          ",
"        .,,))),,''))=.          ",
"        .))===))'))==.          ",
"        .=)))))=))==.           ",
"         .======.....           ",
"         .......$$!~.           ",
"         .~!{]{^$!~$$.          ",
"        ..$!]^]/!~$$$!.         ",
"        ..!/^//&!$$.!!..        ",
"       .(.!&^&&&&!$$.._.        ",
"       .(.!&^&&&/!$$._'.        ",
"       .(.!//^///!$$.''.        ",
"       .(.!^^^^^^!$$.':.        ",
"        ..$!<<<<<!$$...         ",
"         .!<<....<!!.           ",
"         .<<[.  .<<[.           ",
"          [[[.   [[[.           "};
