/* XPM */
static char *result[] = {
/* columns rows colors chars-per-pixel */
"64 32 26 1 ",
"  c #1F3D39",
". c #302C2E",
"X c #472D3C",
"o c #754027",
"O c #7D5E3B",
"+ c #3C5956",
"@ c #5A5353",
"# c #7A444A",
"$ c #7D7071",
"% c #8A4F33",
"& c #A05B53",
"* c #97724A",
"= c #A46242",
"- c #AD6F52",
"; c #BF7958",
": c #CF7E57",
"> c #BE936E",
", c #C79B6C",
"< c #D49D6F",
"1 c #CB9B72",
"2 c #E5B581",
"3 c #E1B28A",
"4 c #E5C29D",
"5 c #F4CCA1",
"6 c white",
"7 c None",
/* pixels */
"7777777777777777777777777777777777777777777777777777777777777777",
"7777777777777777777777777777777777777777777777777777777777777777",
"7777777777777777777777777777777777777777777777777777777777777777",
"7777777777777777777777777777777777777777777777777777777777777777",
"777777777777777XXXXXX77777777777777777777777777XXXXXX77777777777",
"7777777777777XX333<:-X77777777777777777777777XX333<:-X7777777777",
"777777777777X333<<<;:-X777777777777777777777X333<<<;:-X777777777",
"77777777777X33<<;;;;:-=X7777777777777777777X33<<;;;;:-=X77777777",
"7777777777X33<;;;;;;-:=X777777777777777777X33<;;;;;;-:=X77777777",
"777777777XXXXXXX;----XX<X7777777777777777XXXXXXX;----XX<X7777777",
"77777777X33333<<XXXXX<<<<X77777777777777X33333<<XXXXX<<<<X777777",
"777777777XXXXXXX<<<<<<XXX7777777777777777XXXXXXX<<<<<<XXX7777777",
"7777777777XOO**4XXXXXX4X77777777777777777XOOO**4XXXXXX4X77777777",
"777777777XOO**44$$444$$X777777777777777777XO**44$$444$$X77777777",
"7777777777X*$$$$6X$$$6X$X7777777777777777XO*$$$$6X$$$6X$X7777777",
"777777777XO$5,5@XX@*@XX@XXX777777777777777X$5,5@XX@*@XX@X7XX7777",
"7777777XX7X*,,55@@,,,@@XX22X7777777777XX77X*,,55@@,,,@@X7X22X777",
"777777X22XX**,,5,,***,,XX22X777777777X22X7X**,,5,,***,,X7X22X777",
"777777X25X7X**,,*,,,,,*X222X777777777X25X77X**,,*,,,,,*XX222X777",
"777777X55X7XXXXX******XX22X7777777777X555X7XXXXX******XX222X7777",
"777777X555XX1>33XXXXXXX>X2X77777777777X555XX1>33XXXXXXX>X2X77777",
"777777X555X331>3o+ +>1X>XX777777777777X555X331>>o+ +>1X>XX777777",
"7777777X5X>3331>% o >3X>>X7777777777777X5X>3331%% o o>X>>X777777",
"77777777XX>>333>=%%o%>X>X777777777777777XX>333>==%%o%%X>X7777777",
"7777777777XX33>====o=>XX777777777777777777X333>====o==>X77777777",
"77777777777X33>%===o=>X7777777777777777777X33>%%===o==>3X7777777",
"77777777777X33>%%%ooo>3X77777777777777777X333>.%%%oooo>3X7777777",
"77777777777X33>ooo&&&&3X77777777777777777X333>@ooo&&&&#>X7777777",
"7777777777X33>&&&&XX&&&X77777777777777777X>>>#&&&&XX&&&X77777777",
"7777777777X>>&XXXX7X#&&X777777777777777777X&&&XXXX7X#&&X77777777",
"7777777777X#&&X7777X###7777777777777777777X#&&X7777X###777777777",
"7777777777X###7777777777777777777777777777X###777777777777777777"
};
