/* XPM */
static char *result[] = {
/* columns rows colors chars-per-pixel */
"192 32 28 1 ",
"  c #1F3D39",
". c #472D3C",
"X c #754027",
"o c #7D5E3B",
"O c #3C5956",
"+ c #5A5353",
"@ c #7A444A",
"# c #7D7071",
"$ c #8A4F33",
"% c #A05B53",
"& c #97724A",
"* c #A46242",
"= c #AD6F52",
"- c #BF7958",
"; c #CF7E57",
": c #BE936E",
"> c #C79B6C",
", c #D49D6F",
"< c #CB9B72",
"1 c #CBA276",
"2 c #EEA160",
"3 c #E5B581",
"4 c #E1B28A",
"5 c #E5C29D",
"6 c #F6C693",
"7 c #F4CCA1",
"8 c white",
"9 c None",
/* pixels */
"999999999999999999999999999999999999999999999999999999999999999999999999999999999999999999999999999999999999999999999999999999999999999999999999999999999999999999999999999999999999999999999999",
"999999999999999999999999999999999999999999999999999999999999999999999999999999999999999999999999999999999999999999999999999999999999999999999999999999999999999999999999999999999999999999999999",
"999999999999999999999999999999999999999999999999999999999999999999999999999999999999999999999999999999999999999999999999999999999999999999999999999999999999999999999999999999999999999999999999",
"999999999999999999999999999999999999999999999999999999999999999999999999999999999999999999999999999999999999999999999999999999999999999999999999999999999999999999999999999999999999999999999999",
"999999999999999......99999999999999999999999999......9999999999999999999999999999999999999999999999999999999999......99999999999999999999999999......9999999999999999999999999999999999999999999",
"9999999999999..444,;=.99999999999999999999999..444,;=.9999999999999999999999999......999999999999999999999999..444,;=.99999999999999999999999..444,;=.9999999999999999999999999......99999999999",
"999999999999.444,,,-;=.999999999999999999999.444,,,-;=.9999999999999999999999..444,;=.9999999999999999999999.444,,,-;=.999999999999999999999.444,,,-;=.9999999999999999999999..444,;=.9999999999",
"99999999999.44,,----;=*.9999999999999999999.44,,----;=*.99999999999999999999.444,,,-;=.99999999999999999999.44,,----;=*.9999999999999999999.44,,----;=*.99999999999999999999.444,,,-;=.999999999",
"9999999999.44,------=;*.999999999999999999.44,------=;*.9999999999999999999.44,,----;=*.999999999999999999.44,------=;*.999999999999999999.44,------=;*.9999999999999999999.44,,----;=*.99999999",
"999999999.......-====..,.9999999999999999.......-====..,.99999999999999999.44,------=;*.99999999999999999.......-====..,.9999999999999999.......-====..,.99999999999999999.44,------=;*.99999999",
"99999999.44444,,.....,,,,.99999999999999.44444,,.....,,,,.999999999999999.......-====..,.999999999999999.44444,,.....,,,,.99999999999999.44444,,.....,,,,.999999999999999.......-====..,.9999999",
"999999999.......,,,,,,...9999999999999999.......,,,,,,...999999999999999.44444,,.....,,,,.999999999999999.......,,,,,,...9999999999999999.......,,,,,,...999999999999999.44444,,.....,,,,.999999",
"9999999999.oo&&5......5.999999999999999999.oo&&5......5.99999999999999999.......,,,,,,...99999999999999999.oo&&5......5.999999999999999999.oo&&5......5.99999999999999999.......,,,,,,...9999999",
"9999999999.o&&55##555##.999999999999999999.o&&55##555##.999999999999999999.oo&&5......5.999999999999999999.o&&55##555##.999999999999999999.o&&55##555##.999999999999999999.oo&&5......5.99999999",
"9999999999.&####8.###8.#.99999999999999999.&####8.###8.#.99999999999999999.o&&55##555##.999999999999999999.&####8.###8.#.99999999999999999.&####8.###8.#.99999999999999999.o&&55##555##.99999999",
"9999999999.#7>7+..+&+..+.99999999999999999.#7>7+..+&+..+.99999999999999999.&####8.###8.#.99999999999999999.#7>7+..+&+..+.99999999999999999.#7>7+..+&+..+.99999999999999999.&####8.###8.#.9999999",
"9999999999.&>>77++>>>++.999999999999999999.&>>77++>>>++.999999999999999999.#7>7+..+&+..+.99999999999999999.&>>77++>>>++.999999999999999999.&>>77++>>>++.999999999999999999.#7>7+..+&+..+.9999999",
"9999999999.&&>>7>>&&&>>.999999999999999999.&&>>7>>&&&>>.999999999999999999.&>>77++>>>++.999999999999999999.&&>>7>>&&&>>.999999999999999999.&&>>7>>&&&>>.999999999999999999.&>>77++>>>++.99999999",
"99999999999.&&>>&>>>>>&.9999999999999999999.&&>>&>>>>>&.999999999999999999.&&>>7>>&&&>>.9999999999999999999.&&>>&>>>>>&.9999999999999999999.&&>>&>>>>>&.999999999999999999.&&>>7>>&&&>>.99999999",
"99999999999.....&&&&&&.99999999999999999999.....&&&&&&.99999999999999999999.&&>>&>>>>>&.9999999999999999999.....&&&&&&.99999999999999999999.....&&&&&&.99999999999999999999.&&>>&>>>>>&.99999999",
"99999999999.<:44.......99999999999999999999.<:44.......99999999999999999999.....&&&&&&.99999999999999999999.<:44.......99999999999999999999.<:44.......99999999999999999999.....&&&&&&.999999999",
"9999999999.44<:4XO O:<.9999999999999999999.<4<:4XO O:<.9999999999999999999..<:44.......9999999999999999999.44<:4XO O:<.9999999999999999999.<4<:4XO O::.9999999999999999999..<:44.......999999999",
"999999999.:444<:$ X :4..99999999999999999.:444<:$ X :4.999999999999999999.:444:4XO O:<.999999999999999999.:444<:$ X :4..99999999999999999.:444<:$ X :4..99999999999999999.:44<:4XO O:<..99999999",
"99999999..::.44:*$$X$:..9999999999999999..::.44:*$$X$:..9999999999999999..::.4<:$ X :4.99999999999999999..::.44:*$$X$:..9999999999999999...:.44:*$$X$:..9999999999999999.7.:.4<:$ X :4..99999999",
"99999999.6..44:****X*:.2.999999999999999.6..444:***X*:..9999999999999999.6...44:*$$X$:.99999999999999999.6..44:****X*:.2.999999999999999.77.444:***X*:.2.99999999999999.777.444:*$$X$:.3.9999999",
"99999999.76.44:$***X*:.2.999999999999999.767.4:****X*:..9999999999999999.7677.:****X*:.99999999999999999.76.44:$***X*:.2.99999999999999.77..44:****X*:.-2.999999999999.777..44:****X*:.13.999999",
"99999999.77.44:$$$X$$:.2.9999999999999999.77.4:$$$XXX:..99999999999999999.777.:$$$X$$:.99999999999999999.77.44:$$$X$$:.2.99999999999999.77..44:XX$X$$:.-2.999999999999.33.9.44:$$$X$$:.133.99999",
"99999999.37.44:XXXXXX:.2.9999999999999999.77.4:XXXX%:4.9999999999999999999...4:XXXXXX:.99999999999999999.37.44:XXXXXX:.2.99999999999999.33..44:%%XXXX:.2-.9999999999999..99.44:XXXXXX:..13.99999",
"999999999...44:%%%%%:4..999999999999999999...4:%%%%.%%:.99999999999999999.44::%%%%%%%:4.99999999999999999...44:%%%%%:4..9999999999999999..99.::%.%%%:4...999999999999999999.44:%%%%%:.99..999999",
"99999999999.::%....%%:.9999999999999999999.::%......@%%.99999999999999999.::%........%%:.999999999999999999.::%....%%:.999999999999999999999.@%%..%%:.9999999999999999999999..::%.%:.99999999999",
"99999999999.@%%.99.@%%.9999999999999999999.@%%.9999.@@@999999999999999999.@%%.999999.@%%.999999999999999999.@%%.99.@%%.999999999999999999999.@@@9.@%%.99999999999999999999999.@%%.%%.99999999999",
"99999999999.@@@999.@@@99999999999999999999.@@@999999999999999999999999999.@@@9999999.@@@9999999999999999999.@@@999.@@@999999999999999999999999999.@@@999999999999999999999999.@@@.@@999999999999"
};
