/* XPM */
static char * player_right_xpm[] = {
"32 32 27 1",
" 	c None",
".	c #472D3C",
"+	c #E1B28A",
"@	c #D49D6F",
"#	c #CF7E57",
"$	c #AD6F52",
"%	c #BF7958",
"&	c #A46242",
"*	c #7D5E3B",
"=	c #97724A",
"-	c #E5C29D",
";	c #7D7071",
">	c #FFFFFF",
",	c #F4CCA1",
"'	c #C79B6C",
")	c #5A5353",
"!	c #CB9B72",
"~	c #BE936E",
"{	c #754027",
"]	c #3C5956",
"^	c #1F3D39",
"/	c #8A4F33",
"(	c #F6C693",
"_	c #EEA160",
":	c #E5B581",
"<	c #A05B53",
"[	c #7A444A",
"                                ",
"                                ",
"                                ",
"                                ",
"               ......           ",
"             ..+++@#$.          ",
"            .+++@@@%#$.         ",
"           .++@@%%%%#$&.        ",
"          .++@%%%%%%$#&.        ",
"         .......%$$$$..@.       ",
"        .+++++@@.....@@@@.      ",
"         .......@@@@@@...       ",
"          .**==-......-.        ",
"          .*==--;;---;;.        ",
"          .=;;;;>.;;;>.;.       ",
"          .;,',)..)=)..).       ",
"          .='',,))''')).        ",
"          .=='',''===''.        ",
"           .==''='''''=.        ",
"           .....======.         ",
"           .!~++.......         ",
"          .++!~+{]^]~!.         ",
"         .~+++!~/^{^~+..        ",
"        ..~~.++~&//{/~..        ",
"        .(..++~&&&&{&~._.       ",
"        .,(.++~/&&&{&~._.       ",
"        .,,.++~///{//~._.       ",
"        .:,.++~{{{{{{~._.       ",
"         ...++~<<<<<~+..        ",
"           .~~<....<<~.         ",
"           .[<<.  .[<<.         ",
"           .[[[   .[[[          "};
