/* XPM */
static char * wall2_xpm[] = {
"32 32 70 1",
" 	c #A05B53",
".	c #9E5A53",
"+	c #9E5A52",
"@	c #7E464B",
"#	c #7C454A",
"$	c #7B3E44",
"%	c #783F45",
"&	c #9F5A53",
"*	c #9D5952",
"=	c #7A444A",
"-	c #79434A",
";	c #794349",
">	c #783C43",
",	c #773C43",
"'	c #753D44",
")	c #743D44",
"!	c #784349",
"~	c #8D4848",
"{	c #8C4848",
"]	c #7B444A",
"^	c #5A333E",
"/	c #58323E",
"(	c #58323D",
"_	c #5A323E",
":	c #8C4747",
"<	c #8B4747",
"[	c #59323E",
"}	c #56313D",
"|	c #57313D",
"1	c #5D323F",
"2	c #5B313F",
"3	c #5E3643",
"4	c #5F3643",
"5	c #5C323F",
"6	c #663545",
"7	c #653545",
"8	c #663645",
"9	c #8A4747",
"0	c #5F3340",
"a	c #5D3240",
"b	c #613743",
"c	c #603643",
"d	c #5D313F",
"e	c #5E323F",
"f	c #683645",
"g	c #673545",
"h	c #673645",
"i	c #683745",
"j	c #793C43",
"k	c #773B43",
"l	c #7A4349",
"m	c #793D44",
"n	c #5E3844",
"o	c #603945",
"p	c #5F3945",
"q	c #5F323F",
"r	c #5C3140",
"s	c #5C3240",
"t	c #5F3845",
"u	c #733C44",
"v	c #603743",
"w	c #5C313F",
"x	c #79444A",
"y	c #613945",
"z	c #613A45",
"A	c #5B3240",
"B	c #57313E",
"C	c #623A45",
"D	c #7A434A",
"E	c #653544",
"                                ",
"  ................++++++++....  ",
" .@###############$$$$%%%%###@. ",
"&*#=----==-------;>>>,''))!-=#*&",
"~{]-^//^--^///////(((_))_(/^-]{~",
":<]-[}}[--[}}}}}}}}}}())[||[-]<:",
":<]-1234--433322222225))6778-]<:",
"<9]-0a4b;;bcc42222d15e))fghi-]9<",
"]]==-;>>jj>>>kd22dk>))'')'--==]]",
"==---;>>>>jjj>1221>j''))))==--==",
"=-^///(((_)'')5221>jl!^((^--^^-=",
"=-[}}}}}}/)'')5221>m=-[}}[--[[-=",
"=-122222no)'j>1221;==-1221--11-=",
"=-a22222po)'j>q110-==-a221;;aa;=",
"=-h66722po)'jj>>;-===-c325)'66''",
"=-h667rstou),>>>;----!v3w1))gg)'",
"=xypsr77s2((((((/////[3376))gg)'",
"=xzpAs66r2}}}}}}}}}}}B346g))gg)'",
"=xzppp6667222222333333766g))gg)'",
"=-Coyyhhhhaaaaaacvvvvv6ggf))ff''",
"jj>>-x---------------;')))'')'D=",
"jj>>;-==-------------!))''))))==",
"j>_(/^--^/////////////(_))_((^-=",
"j>[||[--[|||}}}}}}}}|||[))[||[-=",
"j>6778--877E22332222E778--8778-=",
"j>fggf--fgg6aaccaaaahhhi--ihhi-=",
"jj>>>>'')))';-----------==----==",
"jj>>>,''))))!-----------==----==",
"j>_((_))_(((///////////^--^//^-=",
"j>_((_))_(((//(((((((((^;;^((^-=",
"jj>>>,'',>>>;;>>>>>>>>>>jj>>>>==",
"jjjjjj''jjjj==jjjjjjjjjjjjjjjj=="};
